<svg xmlns="http://www.w3.org/2000/svg" viewBox="0 0 200 200">
  <defs>
    <linearGradient id="gold" x1="0%" y1="0%" x2="0%" y2="100%">
      <stop offset="0%" stop-color="#ffd700"/>
      <stop offset="100%" stop-color="#d4af37"/>
    </linearGradient>
    <linearGradient id="maroon" x1="0%" y1="0%" x2="0%" y2="100%">
      <stop offset="0%" stop-color="#a01830"/>
      <stop offset="100%" stop-color="#7a1228"/>
    </linearGradient>
  </defs>
  <circle cx="100" cy="100" r="98" fill="url(#maroon)" stroke="#5a0e1c" stroke-width="2"/>
  <rect x="10" y="55" width="180" height="90" rx="4" fill="url(#gold)"/>
  <rect x="10" y="10" width="180" height="42" rx="4" fill="url(#maroon)"/>
  <rect x="10" y="148" width="180" height="42" rx="4" fill="url(#maroon)"/>
  <!-- Left elephant silhouette -->
  <ellipse cx="52" cy="102" rx="22" ry="18" fill="#888"/>
  <path d="M38 95 Q30 80 35 70 Q42 75 45 88" fill="#888"/>
  <path d="M66 95 Q74 80 69 70 Q62 75 59 88" fill="#888"/>
  <!-- Right elephant silhouette -->
  <ellipse cx="148" cy="102" rx="22" ry="18" fill="#888"/>
  <path d="M134 95 Q126 80 131 70 Q138 75 141 88" fill="#888"/>
  <path d="M162 95 Q170 80 165 70 Q158 75 155 88" fill="#888"/>
  <!-- Center emblem -->
  <circle cx="100" cy="100" r="22" fill="#8b0000" stroke="#2d6a2d" stroke-width="3"/>
  <circle cx="100" cy="100" r="18" fill="none" stroke="#2d6a2d" stroke-width="1.5" stroke-dasharray="2 3"/>
  <g transform="translate(100,100)">
    <line x1="0" y1="-14" x2="0" y2="8" stroke="#e91e8c" stroke-width="1.5"/>
    <line x1="-12" y1="-8" x2="8" y2="4" stroke="#e91e8c" stroke-width="1.5"/>
    <line x1="12" y1="-8" x2="-8" y2="4" stroke="#e91e8c" stroke-width="1.5"/>
    <line x1="-10" y1="2" x2="10" y2="2" stroke="#e91e8c" stroke-width="1.5"/>
    <line x1="10" y1="2" x2="-10" y2="2" stroke="#e91e8c" stroke-width="1.5"/>
    <ellipse cx="0" cy="10" rx="6" ry="3" fill="#2d6a2d"/>
  </g>
  <text x="100" y="192" text-anchor="middle" fill="#ffd700" font-family="Arial,sans-serif" font-size="11" font-weight="bold">TVK</text>
</svg>
